<svg width="151" height="47" viewBox="0 0 151 47" fill="none" xmlns="http://www.w3.org/2000/svg">
<path d="M16.7401 47C13.4459 47 10.187 46.209 7.42198 44.6181C2.61517 41.854 -0.0175516 37.1781 8.80692e-05 31.4432C0.00449799 29.7249 1.40685 28.3318 3.13113 28.3318H3.13995C4.86864 28.3362 6.26658 29.7381 6.26217 31.4608C6.24894 35.8202 8.5862 38.0834 10.5486 39.2084C14.2838 41.3574 19.6419 41.2607 23.5755 38.9755C25.9569 37.5956 28.7836 34.8446 28.7483 29.5975C28.7219 26.1917 27.7208 23.656 25.6879 21.8498C21.0971 17.7717 12.7668 18.6242 12.683 18.633C11.3292 18.778 10.0327 18.0397 9.48141 16.8005C8.92576 15.5612 9.23446 14.111 10.2487 13.2057L18.0543 6.23591H12.3346C10.6059 6.23591 9.20359 4.83843 9.20359 3.11136C9.20359 1.38869 10.6059 -0.00878906 12.3346 -0.00878906H26.2391C27.5356 -0.00878906 28.6998 0.791024 29.1629 1.99953C29.6259 3.20804 29.2952 4.57476 28.3294 5.43609L20.0961 12.7882C23.3241 13.3727 26.9403 14.612 29.8244 17.1608C33.2288 20.1667 34.9707 24.3328 35.0104 29.5491C35.0545 35.8861 32.0381 41.2827 26.7286 44.3633C23.7166 46.1123 20.2063 46.9868 16.7401 46.9868V47Z" fill="#4ECDC4"/>
<path d="M54.414 32.7659C57.8228 32.7659 59.7588 31.3289 60.385 28.2922C60.6849 26.842 61.9461 25.7873 63.4278 25.7873C65.452 25.7873 66.9381 27.6902 66.4398 29.6413C65.0066 35.2488 60.3674 38.2284 54.7271 38.2284H54.1009C46.5202 38.2284 40.7256 33.5613 40.7256 24.7194V20.3644C40.7256 11.7422 46.6128 6.85547 53.9245 6.85547H54.5507C60.3762 6.85547 65.108 9.75589 66.4927 15.6314C66.947 17.5519 65.4388 19.3888 63.4587 19.3888H63.1456C61.6727 19.3888 60.4203 18.3517 60.1072 16.9147C59.4501 13.8736 57.4612 12.3223 54.3743 12.3223C50.8067 12.3223 47.9534 14.7218 47.9534 19.3888V25.6994C47.9534 30.3665 50.8508 32.7659 54.4184 32.7659H54.414Z" fill="#4ECDC4"/>
<path d="M84.3352 7.30371C81.8745 7.30371 79.674 8.83742 78.8361 11.1446L70.6468 33.6272C69.9104 35.6487 71.4142 37.7845 73.5706 37.7845C74.8936 37.7845 76.0666 36.9539 76.5076 35.7103L83.9383 14.6339H84.1588C85.2613 17.7848 89.7991 30.6433 91.5895 35.7146C92.0261 36.9539 93.2036 37.7845 94.5221 37.7845H95.0998C97.2563 37.7845 98.7601 35.6487 98.0236 33.6272L89.8344 11.1446C88.9965 8.83742 86.796 7.30371 84.3352 7.30371Z" fill="#4ECDC4"/>
<path d="M112.696 37.7889H111.404C109.878 37.7889 108.638 36.554 108.638 35.0335V12.8145H102.707C101.181 12.8145 99.9421 11.5796 99.9421 10.0591C99.9421 8.53859 101.181 7.30371 102.707 7.30371H121.348C122.874 7.30371 124.113 8.53859 124.113 10.0591C124.113 11.5796 122.874 12.8145 121.348 12.8145H115.461V35.0335C115.461 36.554 114.221 37.7889 112.696 37.7889Z" fill="#4ECDC4"/>
<path d="M146.436 16.3258C145.201 16.3258 144.015 15.6578 143.512 14.5284C142.842 13.0123 141.201 12.3267 138.824 12.3267C135.526 12.3267 133.652 13.4825 133.652 15.17C133.652 20.9445 150.996 17.0817 150.996 28.1911C150.996 35.4334 145.779 38.2327 138.375 38.2327C133.193 38.2327 128.479 36.7869 126.732 32.1858C125.934 30.0852 127.504 27.8352 129.758 27.8352H129.837C131.12 27.8352 132.315 28.5427 132.822 29.6985C133.581 31.4299 135.424 32.7659 138.154 32.7659C142.657 32.7659 143.997 31.0344 143.997 29.2986C143.997 23.4318 126.741 27.5188 126.741 15.8775C126.741 9.79105 132.227 6.85547 138.692 6.85547C143.371 6.85547 147.441 8.16066 149.28 11.6368C150.405 13.7637 148.848 16.3214 146.436 16.3214V16.3258Z" fill="#4ECDC4"/>
</svg>
