<svg width="93" height="87" viewBox="0 0 93 87" fill="none" xmlns="http://www.w3.org/2000/svg">
<path d="M90.4468 33.735L76.8804 10.485C73.4201 4.55625 67.0108 0.875 60.1482 0.875H32.7481C25.8854 0.875 19.4723 4.56012 16.0119 10.485L2.44556 33.735C-1.06519 39.7567 -1.06519 47.2394 2.44556 53.2611L16.0119 76.5111C19.4723 82.4399 25.8816 86.1211 32.7442 86.1211H60.1443C67.0069 86.1211 73.4201 82.436 76.8804 76.5111L90.4429 53.2611C93.9537 47.2394 93.9576 39.7567 90.4468 33.735ZM60.8651 52.3815C62.3802 53.8966 62.3802 56.3456 60.8651 57.8607C60.1094 58.6164 59.1174 58.9961 58.1254 58.9961C57.1334 58.9961 56.1414 58.6164 55.3858 57.8607L46.5004 48.9754L37.6151 57.8607C36.8594 58.6164 35.8674 58.9961 34.8754 58.9961C33.8834 58.9961 32.8914 58.6164 32.1358 57.8607C30.6207 56.3456 30.6207 53.8966 32.1358 52.3815L41.0212 43.4961L32.1358 34.6107C30.6207 33.0956 30.6207 30.6466 32.1358 29.1315C33.6509 27.6164 36.0999 27.6164 37.6151 29.1315L46.5004 38.0169L55.3858 29.1315C56.9009 27.6164 59.3499 27.6164 60.8651 29.1315C62.3802 30.6466 62.3802 33.0956 60.8651 34.6107L51.9797 43.4961L60.8651 52.3815Z" fill="#E33F3F"/>
</svg>
