<svg width="111" height="111" viewBox="0 0 111 111" fill="none" xmlns="http://www.w3.org/2000/svg">
<g clip-path="url(#clip0_403_714)">
<path d="M67.0626 62.4375C67.0626 68.8246 61.8872 74 55.5001 74C49.113 74 43.9376 68.8246 43.9376 62.4375C43.9376 56.0504 49.113 50.875 55.5001 50.875C61.8872 50.875 67.0626 56.0504 67.0626 62.4375ZM102.573 58.8994L76.4976 82.9725C75.7206 83.6894 74.8742 84.3091 74.0001 84.878V106.375C74.0001 108.928 71.9281 111 69.3751 111H41.6251C39.0721 111 37.0001 108.928 37.0001 106.375V84.878C36.126 84.3091 35.2796 83.6894 34.5026 82.9725L8.42684 58.8994C6.54909 57.165 6.43346 54.242 8.16321 52.3642C9.89759 50.4957 12.8206 50.3709 14.6983 52.1006L40.7741 76.1737C42.49 77.7555 44.7192 78.625 47.0456 78.625H63.9453C66.2763 78.625 68.5056 77.7555 70.2168 76.1737L96.2926 52.1006C98.175 50.3709 101.098 50.4911 102.828 52.3642C104.562 54.242 104.442 57.1696 102.564 58.8994H102.573ZM42.897 28.2402L39.271 39.8629C38.7807 41.4215 39.3265 43.1235 40.6353 44.104C41.3198 44.6174 42.1292 44.8717 42.9478 44.8717C43.6925 44.8717 44.4417 44.6544 45.0892 44.2196L55.5278 37.2359L66.1422 44.1502C67.5112 45.0429 69.2965 44.9689 70.6007 43.9745C71.9003 42.9755 72.423 41.2643 71.905 39.7103L68.1356 28.2218L77.2515 20.794C78.491 19.7534 78.9442 18.0467 78.3892 16.5251C77.8342 15.0035 76.3866 13.9906 74.7678 13.9906H63.2007L59.1076 2.50675C58.548 0.999 57.105 0 55.4955 0C53.886 0 52.443 0.999 51.8833 2.50675L47.7902 13.9906H36.2231C34.609 13.9906 33.1613 14.9989 32.6063 16.5159C32.0467 18.0329 32.4953 19.7349 33.7302 20.7801L42.8923 28.2356L42.897 28.2402Z" fill="#4ECDC4"/>
</g>
<defs>
<clipPath id="clip0_403_714">
<rect width="111" height="111" fill="white"/>
</clipPath>
</defs>
</svg>
